<?xml version="1.0" encoding="UTF-8"?>
<!DOCTYPE svg >
<svg xmlns="http://www.w3.org/2000/svg" version="1.1" width="96px" height="96px" style="shape-rendering:geometricPrecision; text-rendering:geometricPrecision; image-rendering:optimizeQuality; fill-rule:evenodd; clip-rule:evenodd" xmlns:xlink="http://www.w3.org/1999/xlink">
<g><path style="opacity:1" fill="#000000" d="M -0.5,-0.5 C 31.5,-0.5 63.5,-0.5 95.5,-0.5C 95.5,31.5 95.5,63.5 95.5,95.5C 63.5,95.5 31.5,95.5 -0.5,95.5C -0.5,63.5 -0.5,31.5 -0.5,-0.5 Z"/></g>
<g><path style="opacity:1" fill="#fed7ef" d="M 0.5,0.5 C 31.5,0.5 62.5,0.5 93.5,0.5C 93.5,31.5 93.5,62.5 93.5,93.5C 62.5,93.5 31.5,93.5 0.5,93.5C 0.5,62.5 0.5,31.5 0.5,0.5 Z"/></g>
<g><path style="opacity:1" fill="#34082e" d="M 45.5,4.5 C 58.9228,2.39278 70.4228,6.05944 80,15.5C 90.2047,31.0394 88.0381,44.5394 73.5,56C 68.3718,58.093 63.0384,59.4264 57.5,60C 62.0823,66.4962 66.4157,73.1628 70.5,80C 71.5,80.6667 72.5,80.6667 73.5,80C 76.464,76.0342 79.7974,72.3675 83.5,69C 85.9248,68.0141 87.5915,68.6807 88.5,71C 83.0296,77.6377 77.0296,83.8044 70.5,89.5C 63.624,78.914 56.624,68.414 49.5,58C 46.9234,56.7496 44.2567,56.4163 41.5,57C 42.4438,59.7191 42.7771,62.5525 42.5,65.5C 32.5,65.5 22.5,65.5 12.5,65.5C 12.6655,69.5138 12.4988,73.5138 12,77.5C 10.6124,78.5536 9.11238,78.7203 7.5,78C 6.5251,72.2588 6.19177,66.4254 6.5,60.5C 16.5,60.5 26.5,60.5 36.5,60.5C 36.5,42.5 36.5,24.5 36.5,6.5C 39.6888,6.14166 42.6888,5.47499 45.5,4.5 Z"/></g>
<g><path style="opacity:1" fill="#fed7ef" d="M 47.5,9.5 C 66.3364,7.05973 77.3364,15.0597 80.5,33.5C 78.0113,50.4694 68.3446,56.9694 51.5,53C 48.7365,52.4677 46.0698,51.6343 43.5,50.5C 42.5008,37.1833 42.1675,23.85 42.5,10.5C 44.4147,10.7845 46.0813,10.4511 47.5,9.5 Z"/></g>
</svg>
